<svg width="510" height="510" viewBox="0 0 510 510" fill="none" xmlns="http://www.w3.org/2000/svg">
<path fill-rule="evenodd" clip-rule="evenodd" d="M253.5 18.5C222.442 18.5 192.771 24.4235 165.552 35.2009L164.448 32.4116C192.012 21.4972 222.057 15.5 253.5 15.5C387.153 15.5 495.5 123.847 495.5 257.5C495.5 323.068 469.422 382.547 427.076 426.128L424.924 424.038C466.749 380.994 492.5 322.256 492.5 257.5C492.5 125.504 385.496 18.5 253.5 18.5ZM50.8118 130.796C27.8023 167.527 14.5 210.958 14.5 257.5C14.5 389.496 121.504 496.5 253.5 496.5C259.012 496.5 264.48 496.313 269.899 495.946L270.101 498.939C264.616 499.311 259.08 499.5 253.5 499.5C119.847 499.5 11.5 391.153 11.5 257.5C11.5 210.378 24.9697 166.397 48.2695 129.204L50.8118 130.796Z" fill="url(#paint0_linear)"/>
<defs>
<linearGradient id="paint0_linear" x1="102" y1="74.5" x2="346.574" y2="457.314" gradientUnits="userSpaceOnUse">
<stop stop-color="#5DD6B7"/>
<stop offset="0.677083" stop-color="#31C1E1"/>
<stop offset="1" stop-color="#00BCE5" stop-opacity="0"/>
</linearGradient>
</defs>
</svg>
