<svg width="135" height="41" viewBox="0 0 135 41" fill="none" xmlns="http://www.w3.org/2000/svg">
<path d="M130.197 40.4609H4.729C2.122 40.4609 0 38.3329 0 35.7279V5.18694C0 2.58094 2.122 0.460938 4.729 0.460938H130.197C132.803 0.460938 135 2.58094 135 5.18694V35.7279C135 38.3329 132.803 40.4609 130.197 40.4609Z" fill="black"/>
<path d="M134.033 35.7288C134.033 37.8448 132.319 39.5588 130.199 39.5588H4.72962C2.61063 39.5588 0.890625 37.8448 0.890625 35.7288V5.18583C0.890625 3.07083 2.61063 1.35083 4.72962 1.35083H130.198C132.319 1.35083 134.032 3.07083 134.032 5.18583L134.033 35.7288Z" fill="black"/>
<path d="M30.1281 20.2451C30.0991 17.0221 32.7671 15.4541 32.8891 15.3811C31.3781 13.1781 29.0361 12.8771 28.2131 12.8531C26.2461 12.6461 24.3381 14.0301 23.3361 14.0301C22.3141 14.0301 20.7711 12.8731 19.1081 12.9071C16.9681 12.9401 14.9661 14.1791 13.8681 16.1031C11.6021 20.0261 13.2921 25.7911 15.4631 28.9621C16.5491 30.5151 17.8181 32.2491 19.4791 32.1881C21.1041 32.1211 21.7111 31.1521 23.6721 31.1521C25.6151 31.1521 26.1851 32.1881 27.8791 32.1491C29.6231 32.1211 30.7211 30.5891 31.7691 29.0221C33.0241 27.2421 33.5281 25.4891 33.5481 25.3991C33.5071 25.3851 30.1611 24.1081 30.1281 20.2451Z" fill="white"/>
<path d="M26.928 10.767C27.802 9.67398 28.4 8.18698 28.234 6.67798C26.969 6.73398 25.387 7.55298 24.476 8.62198C23.67 9.56398 22.95 11.108 23.136 12.56C24.557 12.666 26.016 11.843 26.928 10.767Z" fill="white"/>
<path d="M53.6452 31.9657H51.3742L50.1302 28.0567H45.8062L44.6212 31.9657H42.4102L46.6942 18.6577H49.3402L53.6452 31.9657ZM49.7552 26.4167L48.6302 22.9417C48.5112 22.5867 48.2882 21.7507 47.9592 20.4347H47.9192C47.7882 21.0007 47.5772 21.8367 47.2872 22.9417L46.1822 26.4167H49.7552Z" fill="white"/>
<path d="M64.6619 27.0489C64.6619 28.6809 64.2209 29.9709 63.3389 30.9179C62.5489 31.7609 61.5679 32.1819 60.3969 32.1819C59.1329 32.1819 58.2249 31.7279 57.6719 30.8199H57.6319V35.8749H55.4999V25.5279C55.4999 24.5019 55.4729 23.4489 55.4209 22.3689H57.2959L57.4149 23.8899H57.4549C58.1659 22.7439 59.2449 22.1719 60.6929 22.1719C61.8249 22.1719 62.7699 22.6189 63.5259 23.5139C64.2839 24.4099 64.6619 25.5879 64.6619 27.0489ZM62.4899 27.1269C62.4899 26.1929 62.2799 25.4229 61.8579 24.8169C61.3969 24.1849 60.7779 23.8689 60.0019 23.8689C59.4759 23.8689 58.9979 24.0449 58.5709 24.3919C58.1429 24.7419 57.8629 25.1989 57.7319 25.7649C57.6659 26.0289 57.6329 26.2449 57.6329 26.4149V28.0149C57.6329 28.7129 57.8469 29.3019 58.2749 29.7829C58.7029 30.2639 59.2589 30.5039 59.9429 30.5039C60.7459 30.5039 61.3709 30.1939 61.8179 29.5759C62.2659 28.9569 62.4899 28.1409 62.4899 27.1269Z" fill="white"/>
<path d="M75.698 27.0489C75.698 28.6809 75.257 29.9709 74.374 30.9179C73.585 31.7609 72.604 32.1819 71.433 32.1819C70.169 32.1819 69.261 31.7279 68.709 30.8199H68.669V35.8749H66.537V25.5279C66.537 24.5019 66.51 23.4489 66.458 22.3689H68.333L68.452 23.8899H68.492C69.202 22.7439 70.281 22.1719 71.73 22.1719C72.861 22.1719 73.806 22.6189 74.564 23.5139C75.319 24.4099 75.698 25.5879 75.698 27.0489ZM73.526 27.1269C73.526 26.1929 73.315 25.4229 72.893 24.8169C72.432 24.1849 71.815 23.8689 71.038 23.8689C70.511 23.8689 70.034 24.0449 69.606 24.3919C69.178 24.7419 68.899 25.1989 68.768 25.7649C68.703 26.0289 68.669 26.2449 68.669 26.4149V28.0149C68.669 28.7129 68.883 29.3019 69.309 29.7829C69.737 30.2629 70.293 30.5039 70.979 30.5039C71.782 30.5039 72.407 30.1939 72.854 29.5759C73.302 28.9569 73.526 28.1409 73.526 27.1269Z" fill="white"/>
<path d="M88.0392 28.2329C88.0392 29.3649 87.6462 30.2859 86.8572 30.9969C85.9902 31.7739 84.7832 32.1619 83.2322 32.1619C81.8002 32.1619 80.6522 31.8859 79.7832 31.3329L80.2772 29.5559C81.2132 30.1219 82.2402 30.4059 83.3592 30.4059C84.1622 30.4059 84.7872 30.2239 85.2362 29.8619C85.6832 29.4999 85.9062 29.0139 85.9062 28.4079C85.9062 27.8679 85.7222 27.4129 85.3532 27.0439C84.9862 26.6749 84.3732 26.3319 83.5172 26.0149C81.1872 25.1459 80.0232 23.8729 80.0232 22.1989C80.0232 21.1049 80.4312 20.2079 81.2482 19.5099C82.0622 18.8109 83.1482 18.4619 84.5062 18.4619C85.7172 18.4619 86.7232 18.6729 87.5262 19.0939L86.9932 20.8319C86.2432 20.4239 85.3952 20.2199 84.4462 20.2199C83.6962 20.2199 83.1102 20.4049 82.6902 20.7729C82.3352 21.1019 82.1572 21.5029 82.1572 21.9779C82.1572 22.5039 82.3602 22.9389 82.7682 23.2809C83.1232 23.5969 83.7682 23.9389 84.7042 24.3079C85.8492 24.7689 86.6902 25.3079 87.2312 25.9259C87.7702 26.5419 88.0392 27.3129 88.0392 28.2329Z" fill="white"/>
<path d="M95.0881 23.969H92.7381V28.628C92.7381 29.813 93.1521 30.405 93.9821 30.405C94.3631 30.405 94.6791 30.372 94.9291 30.306L94.9881 31.925C94.5681 32.082 94.0151 32.161 93.3301 32.161C92.4881 32.161 91.8301 31.904 91.3551 31.391C90.8821 30.877 90.6441 30.015 90.6441 28.804V23.967H89.2441V22.367H90.6441V20.61L92.7381 19.978V22.367H95.0881V23.969Z" fill="white"/>
<path d="M105.691 27.0879C105.691 28.5629 105.269 29.7739 104.427 30.7209C103.544 31.6959 102.372 32.1819 100.911 32.1819C99.503 32.1819 98.382 31.7149 97.546 30.7809C96.71 29.8469 96.292 28.6679 96.292 27.2469C96.292 25.7599 96.722 24.5419 97.585 23.5949C98.446 22.6469 99.608 22.1729 101.069 22.1729C102.477 22.1729 103.61 22.6399 104.465 23.5749C105.283 24.4819 105.691 25.6529 105.691 27.0879ZM103.479 27.1569C103.479 26.2719 103.29 25.5129 102.907 24.8799C102.46 24.1139 101.821 23.7319 100.993 23.7319C100.136 23.7319 99.485 24.1149 99.038 24.8799C98.655 25.5139 98.466 26.2849 98.466 27.1969C98.466 28.0819 98.655 28.8409 99.038 29.4729C99.499 30.2389 100.143 30.6209 100.974 30.6209C101.788 30.6209 102.427 30.2309 102.888 29.4529C103.281 28.8079 103.479 28.0409 103.479 27.1569Z" fill="white"/>
<path d="M112.621 24.2439C112.41 24.2049 112.185 24.1849 111.949 24.1849C111.199 24.1849 110.619 24.4679 110.211 25.0349C109.856 25.5349 109.678 26.1669 109.678 26.9299V31.9649H107.547L107.567 25.3909C107.567 24.2849 107.54 23.2779 107.487 22.3699H109.344L109.422 24.2059H109.481C109.706 23.5749 110.061 23.0669 110.547 22.6859C111.022 22.3429 111.535 22.1719 112.088 22.1719C112.285 22.1719 112.463 22.1859 112.621 22.2109V24.2439Z" fill="white"/>
<path d="M122.156 26.7131C122.156 27.0951 122.131 27.4171 122.078 27.6801H115.682C115.707 28.628 116.016 29.3531 116.61 29.853C117.149 30.3 117.846 30.524 118.702 30.524C119.649 30.524 120.513 30.373 121.29 30.07L121.624 31.55C120.716 31.946 119.644 32.143 118.407 32.143C116.919 32.143 115.751 31.705 114.901 30.83C114.053 29.955 113.628 28.78 113.628 27.306C113.628 25.8591 114.023 24.6541 114.814 23.6931C115.642 22.6671 116.761 22.1541 118.169 22.1541C119.552 22.1541 120.599 22.6671 121.31 23.6931C121.873 24.5081 122.156 25.5161 122.156 26.7131ZM120.123 26.16C120.137 25.5281 119.998 24.9821 119.709 24.5211C119.34 23.9281 118.773 23.6321 118.01 23.6321C117.313 23.6321 116.746 23.9211 116.313 24.5011C115.958 24.9621 115.747 25.5151 115.682 26.1591H120.123V26.16Z" fill="white"/>
<path d="M49.0498 10.4709C49.0498 11.6479 48.6968 12.5339 47.9918 13.1289C47.3388 13.6779 46.4108 13.9529 45.2088 13.9529C44.6128 13.9529 44.1028 13.9269 43.6758 13.8749V7.44386C44.2328 7.35386 44.8328 7.30786 45.4808 7.30786C46.6258 7.30786 47.4888 7.55686 48.0708 8.05486C48.7228 8.61786 49.0498 9.42286 49.0498 10.4709ZM47.9448 10.4999C47.9448 9.73686 47.7428 9.15186 47.3388 8.74386C46.9348 8.33686 46.3448 8.13286 45.5678 8.13286C45.2378 8.13286 44.9568 8.15486 44.7238 8.20086V13.0899C44.8528 13.1099 45.0888 13.1189 45.4318 13.1189C46.2338 13.1189 46.8528 12.8959 47.2888 12.4499C47.7248 12.0039 47.9448 11.3539 47.9448 10.4999Z" fill="white"/>
<path d="M54.909 11.4982C54.909 12.2232 54.702 12.8172 54.288 13.2832C53.854 13.7622 53.279 14.0012 52.561 14.0012C51.869 14.0012 51.318 13.7722 50.907 13.3122C50.497 12.8532 50.292 12.2742 50.292 11.5762C50.292 10.8462 50.503 10.2472 50.927 9.78223C51.351 9.31723 51.921 9.08423 52.639 9.08423C53.331 9.08423 53.887 9.31323 54.308 9.77223C54.708 10.2182 54.909 10.7942 54.909 11.4982ZM53.822 11.5322C53.822 11.0972 53.728 10.7242 53.541 10.4132C53.321 10.0372 53.008 9.84923 52.601 9.84923C52.18 9.84923 51.86 10.0372 51.64 10.4132C51.452 10.7242 51.359 11.1032 51.359 11.5512C51.359 11.9862 51.453 12.3592 51.64 12.6702C51.867 13.0462 52.183 13.2342 52.591 13.2342C52.991 13.2342 53.305 13.0432 53.531 12.6602C53.725 12.3432 53.822 11.9672 53.822 11.5322Z" fill="white"/>
<path d="M62.7646 9.18018L61.2896 13.8942H60.3296L59.7186 11.8472C59.5636 11.3362 59.4376 10.8282 59.3396 10.3242H59.3206C59.2296 10.8422 59.1036 11.3492 58.9416 11.8472L58.2926 13.8942H57.3216L55.9346 9.18018H57.0116L57.5446 11.4212C57.6736 11.9512 57.7796 12.4562 57.8646 12.9342H57.8836C57.9616 12.5402 58.0906 12.0382 58.2726 11.4312L58.9416 9.18118H59.7956L60.4366 11.3832C60.5916 11.9202 60.7176 12.4372 60.8146 12.9352H60.8436C60.9146 12.4502 61.0216 11.9332 61.1636 11.3832L61.7356 9.18118H62.7646V9.18018Z" fill="white"/>
<path d="M68.1974 13.8941H67.1494V11.1941C67.1494 10.3621 66.8334 9.94605 66.1994 9.94605C65.8884 9.94605 65.6374 10.0601 65.4424 10.2891C65.2494 10.5181 65.1514 10.7881 65.1514 11.0971V13.8931H64.1034V10.5271C64.1034 10.1131 64.0904 9.66405 64.0654 9.17805H64.9864L65.0354 9.91505H65.0644C65.1864 9.68606 65.3684 9.49705 65.6074 9.34605C65.8914 9.17005 66.2094 9.08105 66.5574 9.08105C66.9974 9.08105 67.3634 9.22305 67.6544 9.50805C68.0164 9.85705 68.1974 10.3781 68.1974 11.0701V13.8941Z" fill="white"/>
<path d="M71.087 13.8941H70.04V7.01709H71.087V13.8941Z" fill="white"/>
<path d="M77.2576 11.4982C77.2576 12.2232 77.0506 12.8172 76.6366 13.2832C76.2026 13.7622 75.6266 14.0012 74.9096 14.0012C74.2166 14.0012 73.6656 13.7722 73.2556 13.3122C72.8456 12.8532 72.6406 12.2742 72.6406 11.5762C72.6406 10.8462 72.8516 10.2472 73.2756 9.78223C73.6996 9.31723 74.2696 9.08423 74.9866 9.08423C75.6796 9.08423 76.2346 9.31323 76.6566 9.77223C77.0566 10.2182 77.2576 10.7942 77.2576 11.4982ZM76.1696 11.5322C76.1696 11.0972 76.0756 10.7242 75.8886 10.4132C75.6696 10.0372 75.3556 9.84923 74.9496 9.84923C74.5276 9.84923 74.2076 10.0372 73.9886 10.4132C73.8006 10.7242 73.7076 11.1032 73.7076 11.5512C73.7076 11.9862 73.8016 12.3592 73.9886 12.6702C74.2156 13.0462 74.5316 13.2342 74.9396 13.2342C75.3396 13.2342 75.6526 13.0432 75.8786 12.6602C76.0736 12.3432 76.1696 11.9672 76.1696 11.5322Z" fill="white"/>
<path d="M82.329 13.8942H81.388L81.31 13.3512H81.281C80.959 13.7842 80.5 14.0012 79.904 14.0012C79.459 14.0012 79.099 13.8582 78.828 13.5742C78.582 13.3162 78.459 12.9952 78.459 12.6142C78.459 12.0382 78.699 11.5992 79.182 11.2952C79.664 10.9912 80.342 10.8422 81.215 10.8492V10.7612C81.215 10.1402 80.889 9.83023 80.236 9.83023C79.771 9.83023 79.361 9.94723 79.007 10.1792L78.794 9.49123C79.232 9.22023 79.773 9.08423 80.411 9.08423C81.643 9.08423 82.261 9.73423 82.261 11.0342V12.7702C82.261 13.2412 82.284 13.6162 82.329 13.8942ZM81.241 12.2742V11.5472C80.085 11.5272 79.507 11.8442 79.507 12.4972C79.507 12.7432 79.573 12.9272 79.708 13.0502C79.843 13.1732 80.015 13.2342 80.22 13.2342C80.45 13.2342 80.665 13.1612 80.861 13.0162C81.058 12.8702 81.179 12.6852 81.224 12.4582C81.235 12.4072 81.241 12.3452 81.241 12.2742Z" fill="white"/>
<path d="M88.2842 13.8941H87.3542L87.3052 13.1371H87.2762C86.9792 13.7131 86.4732 14.0011 85.7622 14.0011C85.1942 14.0011 84.7212 13.7781 84.3462 13.3321C83.9712 12.8861 83.7842 12.3071 83.7842 11.5961C83.7842 10.8331 83.9872 10.2151 84.3952 9.74309C84.7902 9.30309 85.2742 9.08309 85.8502 9.08309C86.4832 9.08309 86.9262 9.29609 87.1782 9.72309H87.1982V7.01709H88.2472V12.6241C88.2472 13.0831 88.2592 13.5061 88.2842 13.8941ZM87.1982 11.9061V11.1201C87.1982 10.9841 87.1882 10.8741 87.1692 10.7901C87.1102 10.5381 86.9832 10.3261 86.7902 10.1551C86.5952 9.98409 86.3602 9.89809 86.0892 9.89809C85.6982 9.89809 85.3922 10.0531 85.1672 10.3641C84.9442 10.6751 84.8312 11.0721 84.8312 11.5571C84.8312 12.0231 84.9382 12.4011 85.1532 12.6921C85.3802 13.0021 85.6862 13.1571 86.0692 13.1571C86.4132 13.1571 86.6882 13.0281 86.8972 12.7691C87.0992 12.5301 87.1982 12.2421 87.1982 11.9061Z" fill="white"/>
<path d="M97.2469 11.4982C97.2469 12.2232 97.0399 12.8172 96.6259 13.2832C96.1919 13.7622 95.6179 14.0012 94.8989 14.0012C94.2079 14.0012 93.6569 13.7722 93.2449 13.3122C92.8349 12.8532 92.6299 12.2742 92.6299 11.5762C92.6299 10.8462 92.8409 10.2472 93.2649 9.78223C93.6889 9.31723 94.2589 9.08423 94.9779 9.08423C95.6689 9.08423 96.2259 9.31323 96.6459 9.77223C97.0459 10.2182 97.2469 10.7942 97.2469 11.4982ZM96.1609 11.5322C96.1609 11.0972 96.0669 10.7242 95.8799 10.4132C95.6589 10.0372 95.3469 9.84923 94.9389 9.84923C94.5189 9.84923 94.1989 10.0372 93.9779 10.4132C93.7899 10.7242 93.6969 11.1032 93.6969 11.5512C93.6969 11.9862 93.7909 12.3592 93.9779 12.6702C94.2049 13.0462 94.5209 13.2342 94.9289 13.2342C95.3289 13.2342 95.6439 13.0432 95.8699 12.6602C96.0629 12.3432 96.1609 11.9672 96.1609 11.5322Z" fill="white"/>
<path d="M102.882 13.8941H101.835V11.1941C101.835 10.3621 101.519 9.94605 100.884 9.94605C100.573 9.94605 100.322 10.0601 100.128 10.2891C99.934 10.5181 99.837 10.7881 99.837 11.0971V13.8931H98.788V10.5271C98.788 10.1131 98.776 9.66405 98.751 9.17805H99.671L99.72 9.91505H99.749C99.872 9.68606 100.054 9.49705 100.292 9.34605C100.577 9.17005 100.894 9.08105 101.243 9.08105C101.682 9.08105 102.048 9.22305 102.339 9.50805C102.702 9.85705 102.882 10.3781 102.882 11.0701V13.8941Z" fill="white"/>
<path d="M109.935 9.9651H108.781V12.2551C108.781 12.8371 108.986 13.1281 109.392 13.1281C109.58 13.1281 109.736 13.1121 109.859 13.0791L109.886 13.8741C109.679 13.9521 109.407 13.9911 109.072 13.9911C108.658 13.9911 108.336 13.8651 108.103 13.6131C107.869 13.3611 107.753 12.9371 107.753 12.3421V9.9651H107.064V9.1801H107.753V8.3161L108.78 8.0061V9.1791H109.934V9.9651H109.935Z" fill="white"/>
<path d="M115.484 13.8941H114.435V11.2141C114.435 10.3691 114.119 9.94609 113.486 9.94609C113 9.94609 112.668 10.1911 112.486 10.6811C112.455 10.7841 112.437 10.9101 112.437 11.0581V13.8931H111.39V7.01709H112.437V9.85809H112.457C112.787 9.34109 113.26 9.08309 113.873 9.08309C114.307 9.08309 114.666 9.22509 114.951 9.51009C115.306 9.86509 115.484 10.3931 115.484 11.0911V13.8941Z" fill="white"/>
<path d="M121.206 11.3142C121.206 11.5022 121.192 11.6602 121.167 11.7892H118.024C118.038 12.2552 118.188 12.6102 118.479 12.8562C118.745 13.0762 119.088 13.1862 119.508 13.1862C119.973 13.1862 120.397 13.1122 120.779 12.9632L120.943 13.6912C120.496 13.8852 119.97 13.9822 119.361 13.9822C118.631 13.9822 118.056 13.7672 117.64 13.3372C117.222 12.9072 117.015 12.3302 117.015 11.6062C117.015 10.8952 117.208 10.3032 117.597 9.83119C118.003 9.32719 118.552 9.0752 119.245 9.0752C119.923 9.0752 120.438 9.32719 120.786 9.83119C121.067 10.2312 121.206 10.7262 121.206 11.3142ZM120.206 11.0432C120.214 10.7322 120.145 10.4642 120.003 10.2382C119.821 9.9472 119.544 9.8012 119.169 9.8012C118.827 9.8012 118.548 9.9432 118.335 10.2282C118.161 10.4552 118.058 10.7262 118.024 11.0432H120.206Z" fill="white"/>
</svg>
