<svg width="48" height="48" viewBox="0 0 48 48" fill="none" xmlns="http://www.w3.org/2000/svg">
<circle cx="24" cy="24" r="23" stroke="black" stroke-width="2"/>
<path fill-rule="evenodd" clip-rule="evenodd" d="M32.4853 16.9289C32.8758 16.5384 32.8758 15.9052 32.4853 15.5147C32.0948 15.1242 31.4616 15.1242 31.0711 15.5147L24 22.5858L16.9289 15.5147C16.5384 15.1242 15.9052 15.1242 15.5147 15.5147C15.1242 15.9052 15.1242 16.5384 15.5147 16.9289L22.5858 24L15.5147 31.0711C15.1242 31.4616 15.1242 32.0948 15.5147 32.4853C15.9052 32.8758 16.5384 32.8758 16.9289 32.4853L24 25.4142L31.0711 32.4853C31.4616 32.8758 32.0948 32.8758 32.4853 32.4853C32.8758 32.0948 32.8758 31.4616 32.4853 31.0711L25.4142 24L32.4853 16.9289Z" fill="black"/>
</svg>
