<svg width="48" height="48" viewBox="0 0 48 48" fill="none" xmlns="http://www.w3.org/2000/svg">
<circle cx="24" cy="24" r="23" stroke="black" stroke-width="2"/>
<path fill-rule="evenodd" clip-rule="evenodd" d="M35 16C35 16.5523 34.5523 17 34 17H14C13.4477 17 13 16.5523 13 16V16C13 15.4477 13.4477 15 14 15H34C34.5523 15 35 15.4477 35 16V16Z" fill="black"/>
<path fill-rule="evenodd" clip-rule="evenodd" d="M35 24C35 24.5523 34.5523 25 34 25L23 25C22.4477 25 22 24.5523 22 24V24C22 23.4477 22.4477 23 23 23L34 23C34.5523 23 35 23.4477 35 24V24Z" fill="black"/>
<path fill-rule="evenodd" clip-rule="evenodd" d="M35 32C35 32.5523 34.5523 33 34 33H14C13.4477 33 13 32.5523 13 32V32C13 31.4477 13.4477 31 14 31H34C34.5523 31 35 31.4477 35 32V32Z" fill="black"/>
</svg>
