<svg width="33" height="33" viewBox="0 0 33 33" xmlns="http://www.w3.org/2000/svg">
<path fill-rule="evenodd" clip-rule="evenodd" d="M5.84732 9.56818C4.78932 9.56818 3.93164 10.4259 3.93164 11.4839V20.8116C3.93164 21.8696 4.78932 22.7273 5.84732 22.7273H28.1674C29.2254 22.7273 30.083 21.8696 30.083 20.8116V11.4839C30.083 10.4259 29.2254 9.56818 28.1674 9.56818H5.84732ZM5.09791 11.4839C5.09791 11.07 5.43343 10.7344 5.84732 10.7344H28.1674C28.5812 10.7344 28.9168 11.07 28.9168 11.4839V20.8116C28.9168 21.2255 28.5812 21.561 28.1674 21.561H5.84732C5.43343 21.561 5.09791 21.2255 5.09791 20.8116V11.4839Z"/>
<path fill-rule="evenodd" clip-rule="evenodd" d="M29.6315 6.72304C26.3386 5.99921 21.6628 5.70823 17.0124 5.75479C12.3605 5.80136 7.71185 6.18597 4.46965 6.82217C2.973 7.11585 1.8547 8.29835 1.54022 9.77559C0.525061 14.5442 0.469841 18.601 1.48 22.5371C1.82186 23.8691 2.87085 24.8895 4.203 25.2168C7.55319 26.0399 11.7895 26.5081 16.054 26.5977C16.1567 26.9737 16.5006 27.25 16.9091 27.25C17.3119 27.25 17.6519 26.9813 17.7598 26.6134C22.0772 26.6015 26.3231 26.1971 29.6012 25.3674C31.138 24.9784 32.1942 23.6479 32.404 22.1011C33.0255 17.519 33.0604 14.254 32.427 9.87111C32.2077 8.35343 31.157 7.05837 29.6315 6.72304ZM17.0238 6.88903C21.6411 6.8428 26.218 7.13408 29.388 7.83089C30.3912 8.0514 31.1432 8.9182 31.3044 10.0333C31.921 14.3 31.889 17.4584 31.28 21.9486C31.1249 23.0921 30.359 24.0055 29.3229 24.2678C22.5905 25.9718 11.4916 25.8395 4.47363 24.1153C3.53989 23.8859 2.81472 23.1747 2.57869 22.2551C1.62208 18.5277 1.6615 14.6535 2.64966 10.0118C2.87661 8.94572 3.6696 8.13509 4.68806 7.93524C7.83829 7.31709 12.412 6.9352 17.0238 6.88903Z"/>
</svg>
