<svg width="32" height="32" viewBox="0 0 32 32" xmlns="http://www.w3.org/2000/svg">
<path fill-rule="evenodd" clip-rule="evenodd" d="M22.186 1.16279H4.16279V25.5814C4.16279 28.1502 6.24519 30.2326 8.81395 30.2326H26.8372V5.81395C26.8372 3.24519 24.7548 1.16279 22.186 1.16279ZM4.16279 0C3.5206 0 3 0.520598 3 1.16279V25.5814C3 28.7924 5.603 31.3953 8.81395 31.3953H26.8372C27.4794 31.3953 28 30.8748 28 30.2326V5.81395C28 2.603 25.397 0 22.186 0H4.16279Z"/>
<path fill-rule="evenodd" clip-rule="evenodd" d="M24.5119 21.5116H18.1166L18.1166 27.907H24.5119V21.5116ZM18.1166 20.9302C17.7955 20.9302 17.5352 21.1905 17.5352 21.5116V27.907C17.5352 28.228 17.7955 28.4883 18.1166 28.4883H24.5119C24.833 28.4883 25.0933 28.228 25.0933 27.907V21.5116C25.0933 21.1905 24.833 20.9302 24.5119 20.9302H18.1166Z"/>
<path fill-rule="evenodd" clip-rule="evenodd" d="M21.3135 26.7442C22.4374 26.7442 23.3484 25.8332 23.3484 24.7093C23.3484 23.5855 22.4374 22.6744 21.3135 22.6744C20.1897 22.6744 19.2787 23.5855 19.2787 24.7093C19.2787 25.8332 20.1897 26.7442 21.3135 26.7442ZM21.3135 27.3256C22.7585 27.3256 23.9298 26.1543 23.9298 24.7093C23.9298 23.2644 22.7585 22.093 21.3135 22.093C19.8686 22.093 18.6973 23.2644 18.6973 24.7093C18.6973 26.1543 19.8686 27.3256 21.3135 27.3256Z"/>
</svg>
