<svg width="362" height="75" viewBox="0 0 362 75" fill="none" xmlns="http://www.w3.org/2000/svg">
<path d="M0 27.1919H15.3766V54.5605C15.3766 57.3857 16.6138 59.8577 20.3254 59.8577C24.037 59.8577 25.2742 57.3857 25.2742 54.5605V27.1919H40.6508V54.5605C40.6508 57.3857 41.888 59.8577 45.5996 59.8577C49.3112 59.8577 50.5484 57.3857 50.5484 54.5605V27.1919H65.3947V57.0325C65.3947 67.8034 56.2041 74.5131 45.9531 74.5131C41.0043 74.5131 36.0555 71.8646 32.6974 67.98C29.3393 71.8646 24.3905 74.5131 19.4417 74.5131C9.19061 74.5131 0 67.8034 0 57.0325V27.1919Z" fill="white"/>
<path d="M88.5484 50.6757C88.5484 56.5026 92.4367 60.9169 98.9762 60.9169C105.516 60.9169 109.404 56.5026 109.404 50.6757C109.404 45.0254 105.516 40.4345 98.9762 40.4345C92.4367 40.4345 88.5484 45.202 88.5484 50.6757ZM125.134 73.4535H109.051V68.3329H108.874C106.046 72.9238 100.39 74.866 95.0879 74.866C81.6554 74.866 72.1113 63.5654 72.1113 50.6757C72.1113 37.6094 81.4787 26.4854 94.9111 26.4854C100.213 26.4854 105.692 28.4276 109.051 32.4888V28.0745H125.134V73.4535Z" fill="white"/>
<path d="M150.052 0H133.969V73.4539H150.052V0Z" fill="white"/>
<path d="M176.921 0H160.838V73.4539H176.921V0Z" fill="white"/>
<path d="M202.725 50.6761C202.725 56.503 206.614 60.9173 213.153 60.9173C219.692 60.9173 223.581 56.503 223.581 50.6761C223.581 45.0258 219.692 40.435 213.153 40.435C206.614 40.435 202.725 45.2024 202.725 50.6761ZM187.172 0H203.255V32.4892C206.79 28.4281 212.093 26.4858 217.395 26.4858C230.827 26.4858 240.195 37.6098 240.195 50.6761C240.195 63.7424 230.827 74.8665 217.218 74.8665C211.916 74.8665 206.437 72.7476 203.432 68.3333H203.255V73.4539H187.172V0Z" fill="white"/>
<path d="M261.932 50.6757C261.932 56.5026 265.82 60.9169 272.36 60.9169C278.899 60.9169 282.788 56.5026 282.788 50.6757C282.788 45.0254 278.899 40.4345 272.36 40.4345C265.82 40.4345 261.932 45.202 261.932 50.6757ZM299.755 50.6757C299.755 66.0375 287.03 74.866 272.36 74.866C257.867 74.866 244.965 66.214 244.965 50.6757C244.965 35.1374 257.69 26.4854 272.36 26.4854C287.03 26.4854 299.755 35.3139 299.755 50.6757Z" fill="white"/>
<path d="M299.406 28.0752H319.908L328.038 37.4335L336.168 28.0752H357.201L338.289 48.7341L361.089 73.4542H339.88L328.038 60.0347L316.373 73.4542H295.164L317.787 48.7341L299.406 28.0752Z" fill="white"/>
</svg>
