<svg width="135" height="40" viewBox="0 0 135 40" fill="none" xmlns="http://www.w3.org/2000/svg">
<g clip-path="url(#clip0)">
<path fill-rule="evenodd" clip-rule="evenodd" d="M129.745 40H4.99209C2.24074 40 0 37.7456 0 35V5C0 2.24439 2.24074 0 4.99209 0H129.745C132.494 0 134.737 2.24439 134.737 5V35C134.737 37.7456 132.494 40 129.745 40Z" fill="black"/>
<path fill-rule="evenodd" clip-rule="evenodd" d="M129.745 0.800499C132.052 0.800499 133.941 2.68828 133.941 5V35C133.941 37.3117 132.065 39.1995 129.745 39.1995H4.99209C2.68443 39.1995 0.795661 37.3117 0.795661 35V5C0.795661 2.68828 2.67203 0.800499 4.99209 0.800499H129.745ZM129.745 0H4.99209C2.24074 0 0 2.25436 0 5V35C0 37.7556 2.24074 40 4.99209 40H129.745C132.494 40 134.737 37.7556 134.737 35V5C134.737 2.25436 132.494 0 129.745 0Z" fill="black"/>
<path d="M70.9797 13.232C70.08 13.232 69.3215 12.9152 68.7216 12.2918C68.1268 11.6858 67.7946 10.8504 67.8095 9.99754C67.8095 9.08732 68.1168 8.31675 68.7216 7.70577C69.319 7.08233 70.0775 6.76562 70.9773 6.76562C71.8671 6.76562 72.6256 7.08233 73.2353 7.70577C73.8401 8.3367 74.1475 9.10727 74.1475 9.99754C74.1376 10.9103 73.8302 11.6808 73.2353 12.2893C72.638 12.9177 71.8795 13.232 70.9797 13.232ZM44.2074 13.232C43.3274 13.232 42.564 12.9202 41.9393 12.3043C41.3197 11.6908 41.0049 10.9152 41.0049 10C41.0049 9.08483 41.3197 8.30927 41.9393 7.6958C42.5516 7.07984 43.315 6.76812 44.2074 6.76812C44.6436 6.76812 45.0675 6.8554 45.474 7.03246C45.873 7.20453 46.1977 7.43894 46.4382 7.72572L46.4977 7.79804L45.8259 8.46138L45.7565 8.37909C45.3773 7.92523 44.8692 7.70328 44.1974 7.70328C43.5976 7.70328 43.0746 7.91774 42.6433 8.34168C42.2095 8.76812 41.9889 9.32672 41.9889 10.0025C41.9889 10.6783 42.2095 11.2369 42.6433 11.6634C43.0746 12.0873 43.5976 12.3018 44.1974 12.3018C44.8369 12.3018 45.3748 12.0873 45.7937 11.6634C46.0416 11.414 46.1953 11.0649 46.2498 10.6235H44.0958V9.69081H47.1744L47.1867 9.7756C47.2091 9.93271 47.2314 10.0948 47.2314 10.2444C47.2314 11.1048 46.9736 11.8005 46.463 12.3143C45.883 12.9227 45.1245 13.232 44.2074 13.232ZM79.8039 13.0998H78.8545L75.947 8.41899L75.9718 9.26188V13.0973H75.0225V6.90029H76.1057L76.1354 6.94767L78.8694 11.3566L78.8446 10.5162V6.90029H79.8039V13.0998ZM63.8461 13.0998H62.8843V7.83296H61.2162V6.90029H65.5117V7.83296H63.8436V13.0998H63.8461ZM60.4329 13.0998H59.4736V6.90029H60.4329V13.0998ZM55.0417 13.0998H54.0825V7.83296H52.4143V6.90029H56.7099V7.83296H55.0417V13.0998ZM51.807 13.0898H48.1286V6.90029H51.807V7.83296H49.0904V9.5337H51.5418V10.4564H49.0904V12.1571H51.807V13.0898ZM69.4256 11.6509C69.8544 12.0823 70.3749 12.2993 70.9797 12.2993C71.6019 12.2993 72.11 12.0873 72.5339 11.6509C72.9552 11.227 73.1684 10.6709 73.1684 10C73.1684 9.32922 72.9552 8.77061 72.5363 8.34917C72.1075 7.91774 71.5845 7.70079 70.9822 7.70079C70.3601 7.70079 69.8519 7.91276 69.4305 8.34917C69.0092 8.77311 68.796 9.32922 68.796 10C68.796 10.6709 69.0067 11.2295 69.4256 11.6509Z" fill="white"/>
<path fill-rule="evenodd" clip-rule="evenodd" d="M67.7201 21.7557C65.3778 21.7557 63.4791 23.5437 63.4791 26.01C63.4791 28.4539 65.3902 30.2644 67.7201 30.2644C70.0625 30.2644 71.9612 28.4639 71.9612 26.01C71.9612 23.5437 70.0625 21.7557 67.7201 21.7557ZM67.7201 28.5786C66.4387 28.5786 65.3356 27.5113 65.3356 26.0001C65.3356 24.4664 66.4411 23.4215 67.7201 23.4215C69.0016 23.4215 70.1047 24.4664 70.1047 26.0001C70.1071 27.5212 69.0016 28.5786 67.7201 28.5786ZM58.4672 21.7557C56.1248 21.7557 54.2261 23.5437 54.2261 26.01C54.2261 28.4539 56.1372 30.2644 58.4672 30.2644C60.8096 30.2644 62.7082 28.4639 62.7082 26.01C62.7082 23.5437 60.8071 21.7557 58.4672 21.7557ZM58.4672 28.5786C57.1857 28.5786 56.0827 27.5113 56.0827 26.0001C56.0827 24.4664 57.1882 23.4215 58.4672 23.4215C59.7487 23.4215 60.8517 24.4664 60.8517 26.0001C60.8517 27.5212 59.7487 28.5786 58.4672 28.5786ZM47.4568 23.0549V24.8554H51.7524C51.621 25.8654 51.2889 26.611 50.7808 27.1222C50.1512 27.7557 49.1795 28.4439 47.4667 28.4439C44.8269 28.4439 42.7622 26.2993 42.7622 23.6434C42.7622 20.9876 44.8269 18.8429 47.4667 18.8429C48.892 18.8429 49.9306 19.409 50.7014 20.1322L51.9705 18.8554C50.8997 17.823 49.4745 17.0325 47.4767 17.0325C43.8553 17.0325 40.8164 20.0001 40.8164 23.6335C40.8164 27.2769 43.8528 30.2345 47.4767 30.2345C49.4323 30.2345 50.8997 29.5911 52.0598 28.3791C53.2421 27.1896 53.6164 25.5113 53.6164 24.1572C53.6164 23.7357 53.5842 23.3567 53.5172 23.035H47.4543C47.4568 23.0325 47.4568 23.0549 47.4568 23.0549ZM92.4922 24.4564C92.1378 23.5013 91.067 21.7457 88.8708 21.7457C86.6945 21.7457 84.8851 23.4689 84.8851 26.0001C84.8851 28.3891 86.6747 30.2544 89.0815 30.2544C91.0149 30.2544 92.1402 29.0649 92.6038 28.3666L91.1686 27.3991C90.6927 28.1098 90.0309 28.5761 89.0914 28.5761C88.1421 28.5761 87.4778 28.1422 87.0366 27.2868L92.6905 24.9302C92.6905 24.9327 92.4922 24.4564 92.4922 24.4564ZM86.7268 25.8779C86.6822 24.2345 87.9959 23.3991 88.9353 23.3991C89.6764 23.3991 90.2936 23.7656 90.5043 24.2993L86.7268 25.8779ZM82.1338 30.0001H83.9903V17.5013H82.1338V30.0001ZM79.085 22.7008H79.018C78.5991 22.1996 77.8035 21.7457 76.7872 21.7457C74.6778 21.7457 72.7345 23.6135 72.7345 26.0125C72.7345 28.4015 74.6679 30.2469 76.7872 30.2469C77.7911 30.2469 78.5991 29.7906 79.018 29.2794H79.085V29.8903C79.085 31.5138 78.2224 32.3891 76.8318 32.3891C75.6941 32.3891 74.9877 31.5661 74.7001 30.8779L73.0865 31.5562C73.55 32.6784 74.7869 34.0674 76.8293 34.0674C79.0056 34.0674 80.8498 32.7781 80.8498 29.6335V22.0001H79.0949V22.7008C79.0974 22.7008 79.085 22.7008 79.085 22.7008ZM76.9533 28.5786C75.6718 28.5786 74.601 27.5013 74.601 26.0125C74.601 24.5113 75.6718 23.424 76.9533 23.424C78.2224 23.424 79.2064 24.5237 79.2064 26.0125C79.2188 27.5013 78.2249 28.5786 76.9533 28.5786ZM101.185 17.5013H96.7457V30.0001H98.6022V25.2669H101.187C103.242 25.2669 105.262 23.7681 105.262 21.3891C105.262 19.01 103.25 17.5013 101.185 17.5013ZM101.24 23.5213H98.5997V19.232H101.24C102.63 19.232 103.416 20.3866 103.416 21.3766C103.416 22.3567 102.62 23.5213 101.24 23.5213ZM112.703 21.7332C111.355 21.7332 109.965 22.3342 109.389 23.6434L111.035 24.3317C111.39 23.6434 112.039 23.409 112.726 23.409C113.688 23.409 114.659 23.9876 114.681 25.02V25.1522C114.349 24.9626 113.621 24.6734 112.748 24.6734C110.971 24.6734 109.169 25.6509 109.169 27.4838C109.169 29.1621 110.626 30.2395 112.25 30.2395C113.497 30.2395 114.183 29.6734 114.612 29.0175H114.679V29.9851H116.469V25.1971C116.469 22.9676 114.823 21.7332 112.703 21.7332ZM112.47 28.5786C111.863 28.5786 111.013 28.2794 111.013 27.5113C111.013 26.5437 112.074 26.1771 112.979 26.1771C113.797 26.1771 114.183 26.3542 114.669 26.5986C114.535 27.7208 113.593 28.5686 112.47 28.5786ZM122.997 22.0001L120.866 27.4215H120.799L118.59 22.0001H116.593L119.907 29.5786L118.018 33.7906H119.951L125.05 22.0001H122.997ZM106.286 30.0001H108.143V17.5013H106.286V30.0001Z" fill="white"/>
<path fill-rule="evenodd" clip-rule="evenodd" d="M10.3706 7.53364C10.0831 7.84536 9.91699 8.32167 9.91699 8.94511V31.0573C9.91699 31.6808 10.0831 32.1571 10.3805 32.4563L10.4573 32.5237L22.7715 20.1346V19.8578L10.4474 7.46631L10.3706 7.53364Z" fill="url(#paint0_linear)"/>
<path fill-rule="evenodd" clip-rule="evenodd" d="M26.8689 24.2768L22.7617 20.1446V19.8553L26.8689 15.7231L26.9581 15.778L31.8164 18.5561C33.2069 19.3441 33.2069 20.6458 31.8164 21.4438L26.9581 24.2219L26.8689 24.2768Z" fill="url(#paint1_linear)"/>
<path fill-rule="evenodd" clip-rule="evenodd" d="M26.9585 24.2219L22.7621 20L10.3711 32.4663C10.8247 32.9551 11.5857 33.01 12.4358 32.5337L26.9585 24.2219Z" fill="url(#paint2_linear)"/>
<path fill-rule="evenodd" clip-rule="evenodd" d="M26.9585 15.7779L12.4358 7.47869C11.5857 6.98992 10.8222 7.05725 10.3711 7.54603L22.7621 19.9999L26.9585 15.7779Z" fill="url(#paint3_linear)"/>
<path opacity="0.2" fill-rule="evenodd" clip-rule="evenodd" d="M26.8691 24.1321L12.4456 32.3765C11.64 32.8428 10.9212 32.8104 10.4577 32.3865L10.3809 32.4638L10.4577 32.5311C10.9212 32.9525 11.64 32.9875 12.4456 32.5211L26.9683 24.2219L26.8691 24.1321Z" fill="black"/>
<path opacity="0.12" fill-rule="evenodd" clip-rule="evenodd" d="M31.8163 21.2993L26.8564 24.1322L26.9457 24.2219L31.8039 21.4439C32.5004 21.0449 32.8425 20.5212 32.8425 20C32.8003 20.4788 32.4459 20.9327 31.8163 21.2993Z" fill="black"/>
<path opacity="0.25" fill-rule="evenodd" clip-rule="evenodd" d="M12.4353 7.62329L31.8162 18.7006C32.4458 19.0572 32.8003 19.5235 32.8548 19.9998C32.8548 19.4787 32.5128 18.955 31.8162 18.556L12.4353 7.47866C11.0448 6.67816 9.91699 7.34649 9.91699 8.94499V9.08963C9.91699 7.48863 11.0448 6.83277 12.4353 7.62329Z" fill="white"/>
</g>
<defs>
<linearGradient id="paint0_linear" x1="21.6669" y1="8.70654" x2="1.92603" y2="13.9347" gradientUnits="userSpaceOnUse">
<stop stop-color="#00A0FF"/>
<stop offset="0.00657" stop-color="#00A1FF"/>
<stop offset="0.2601" stop-color="#00BEFF"/>
<stop offset="0.5122" stop-color="#00D2FF"/>
<stop offset="0.7604" stop-color="#00DFFF"/>
<stop offset="1" stop-color="#00E3FF"/>
</linearGradient>
<linearGradient id="paint1_linear" x1="33.6298" y1="20" x2="9.57915" y2="20" gradientUnits="userSpaceOnUse">
<stop stop-color="#FFE000"/>
<stop offset="0.4087" stop-color="#FFBD00"/>
<stop offset="0.7754" stop-color="#FFA500"/>
<stop offset="1" stop-color="#FF9C00"/>
</linearGradient>
<linearGradient id="paint2_linear" x1="24.6767" y1="22.2973" x2="8.6991" y2="49.0264" gradientUnits="userSpaceOnUse">
<stop stop-color="#FF3A44"/>
<stop offset="1" stop-color="#C31162"/>
</linearGradient>
<linearGradient id="paint3_linear" x1="7.25091" y1="0.178683" x2="14.3792" y2="12.1163" gradientUnits="userSpaceOnUse">
<stop stop-color="#32A071"/>
<stop offset="0.0685" stop-color="#2DA771"/>
<stop offset="0.4762" stop-color="#15CF74"/>
<stop offset="0.8009" stop-color="#06E775"/>
<stop offset="1" stop-color="#00F076"/>
</linearGradient>
<clipPath id="clip0">
<rect width="134.737" height="40" fill="white"/>
</clipPath>
</defs>
</svg>
