<svg width="165" height="38" viewBox="0 0 165 38" fill="none" xmlns="http://www.w3.org/2000/svg">
<path d="M156.636 9.02795C156.636 11.3292 156.636 9.20497 156.636 14.5745H151.793V22.0683C151.793 23.0124 151.379 23.7795 150.198 23.7795C149.017 23.7795 148.603 22.9534 148.603 22.0683V14.5745H143.642V22.0683C143.642 23.0124 143.228 23.7795 142.047 23.7795C140.866 23.7795 140.452 22.9534 140.452 22.0683V14.5745H135.373C135.373 8.79193 135.432 10.6211 135.432 9.02795C135.491 2.95031 140.866 0 146.063 0C151.202 0 156.636 2.8913 156.636 9.02795Z" fill="#52B89E"/>
<path d="M150.376 29.5031C148.781 29.5031 147.186 28.618 146.123 27.4379C145.06 28.677 143.465 29.5031 141.871 29.5031C139.921 29.5031 138.091 28.736 136.909 27.4379H135.551C135.551 33.2795 140.276 38 146.123 38C151.97 38 156.695 33.2795 156.695 27.4379H155.337C154.156 28.736 152.266 29.5031 150.376 29.5031Z" fill="#52B89E"/>
<path d="M0 14.2205H5.1385V23.3665C5.1385 24.3106 5.55195 25.1366 6.79228 25.1366C8.0326 25.1366 8.44605 24.3106 8.44605 23.3665V14.2205H13.5846V23.3665C13.5846 24.3106 13.998 25.1366 15.2383 25.1366C16.4787 25.1366 16.8921 24.3106 16.8921 23.3665V14.2205H21.8534V24.1925C21.8534 27.7919 18.7821 30.0342 15.3564 30.0342C13.7027 30.0342 12.0489 29.1491 10.9267 27.8509C9.8045 29.1491 8.15073 30.0342 6.49696 30.0342C3.07129 30.0342 0 27.7919 0 24.1925V14.2205Z" fill="#52B89E"/>
<path d="M29.5905 22.0683C29.5905 24.0155 30.8899 25.4907 33.0753 25.4907C35.2606 25.4907 36.56 24.0155 36.56 22.0683C36.56 20.1801 35.2606 18.6459 33.0753 18.6459C30.8899 18.6459 29.5905 20.2391 29.5905 22.0683ZM41.8166 29.6801H36.4419V27.9689H36.3828C35.4378 29.5031 33.5478 30.1522 31.7759 30.1522C27.2871 30.1522 24.0977 26.3758 24.0977 22.0683C24.0977 17.7018 27.228 13.9845 31.7168 13.9845C33.4887 13.9845 35.3197 14.6335 36.4419 15.9907V14.5155H41.8166V29.6801Z" fill="#52B89E"/>
<path d="M50.1443 5.13352H44.7695V29.6801H50.1443V5.13352Z" fill="#52B89E"/>
<path d="M59.1228 5.13352H53.748V29.6801H59.1228V5.13352Z" fill="#52B89E"/>
<path d="M67.7464 22.0683C67.7464 24.0155 69.0458 25.4907 71.2311 25.4907C73.4165 25.4907 74.7159 24.0155 74.7159 22.0683C74.7159 20.1801 73.4165 18.6459 71.2311 18.6459C69.0458 18.6459 67.7464 20.2391 67.7464 22.0683ZM62.5488 5.13352H67.9236V15.9907C69.1048 14.6335 70.8767 13.9845 72.6486 13.9845C77.1374 13.9845 80.2678 17.7018 80.2678 22.0683C80.2678 26.4348 77.1374 30.1522 72.5896 30.1522C70.8177 30.1522 68.9867 29.4441 67.9826 27.9689H67.9236V29.6801H62.5488V5.13352Z" fill="#52B89E"/>
<path d="M87.5314 22.0683C87.5314 24.0155 88.8308 25.4907 91.0161 25.4907C93.2015 25.4907 94.5009 24.0155 94.5009 22.0683C94.5009 20.1801 93.2015 18.6459 91.0161 18.6459C88.8308 18.6459 87.5314 20.2391 87.5314 22.0683ZM100.171 22.0683C100.171 27.2018 95.9184 30.1522 91.0161 30.1522C86.1729 30.1522 81.8613 27.2609 81.8613 22.0683C81.8613 16.8758 86.1139 13.9845 91.0161 13.9845C95.9184 13.9845 100.171 16.9348 100.171 22.0683Z" fill="#52B89E"/>
<path d="M100.054 14.5155H106.906L109.622 17.6428L112.339 14.5155H119.368L113.048 21.4192L120.667 29.6801H113.58L109.622 25.1956L105.724 29.6801H98.6367L106.197 21.4192L100.054 14.5155Z" fill="#52B89E"/>
<path d="M161.586 14.7722H160.694V17.2727H160.331V14.7722H159.441V14.4678H161.586V14.7722Z" fill="#52B89E"/>
<path d="M162.469 14.4678L163.376 16.7564L164.282 14.4678H164.756V17.2727H164.39V16.1804L164.425 15.0014L163.515 17.2727H163.235L162.326 15.0072L162.362 16.1804V17.2727H161.997V14.4678H162.469Z" fill="#52B89E"/>
</svg>
