<svg width="32" height="33" viewBox="0 0 32 33" xmlns="http://www.w3.org/2000/svg">
<path fill-rule="evenodd" clip-rule="evenodd" d="M4.99362 2.11295C13.3331 0.592061 17.8365 0.753398 26.7979 2.18925C28.217 2.41662 29.3534 3.46741 29.6582 4.84156C31.4637 12.9834 31.3433 18.5138 29.589 26.7129C29.3037 28.046 28.2601 29.0845 26.9303 29.3567C19.1046 30.959 13.5637 30.9772 5.0201 29.3374C3.63578 29.0718 2.55134 27.9895 2.28202 26.6051C0.695617 18.4505 0.573045 12.9185 2.24234 4.78772C2.52244 3.42345 3.61246 2.36483 4.99362 2.11295ZM1.22307 4.57845C1.58967 2.79281 3.01362 1.41634 4.80693 1.08929C13.2883 -0.457463 17.9137 -0.288034 26.9626 1.16182C28.7883 1.45435 30.2737 2.81111 30.674 4.61629C32.515 12.9184 32.3889 18.6005 30.6065 26.9307C30.2354 28.665 28.8765 30.0204 27.139 30.3761C23.4424 31.133 20.2384 31.5421 17 31.597C17 31.598 17 31.599 17 31.6C17 32.1523 16.5523 32.6 16 32.6C15.4477 32.6 15 32.1523 15 31.6C15 31.5954 15 31.5907 15.0001 31.5861C11.8877 31.5001 8.64651 31.093 4.82397 30.3593C3.02189 30.0135 1.61104 28.605 1.26064 26.8038C-0.348909 18.5302 -0.476922 12.8587 1.22307 4.57845Z" />
<path fill-rule="evenodd" clip-rule="evenodd" d="M18.9842 5.82191H22.4228C24.4341 5.82191 26.0646 7.45243 26.0646 9.46379V21.9502C26.0646 23.9616 24.4341 25.5921 22.4228 25.5921H9.93632C7.92497 25.5921 6.29444 23.9616 6.29444 21.9502V9.46379C6.29444 7.45243 7.92497 5.82191 9.93632 5.82191H13.0158C13.0054 5.8797 13 5.93922 13 6C13 6.55228 13.4477 7 14 7L18 7C18.5523 7 19 6.55228 19 6C19 5.93922 18.9946 5.8797 18.9842 5.82191ZM5.25391 9.46379C5.25391 6.87776 7.35029 4.78137 9.93632 4.78137H22.4228C25.0088 4.78137 27.1052 6.87776 27.1052 9.46379V21.9502C27.1052 24.5363 25.0088 26.6326 22.4228 26.6326H9.93632C7.3503 26.6326 5.25391 24.5363 5.25391 21.9502V9.46379Z"/>
</svg>
