<svg width="32" height="33" viewBox="0 0 32 33" xmlns="http://www.w3.org/2000/svg">
<path fill-rule="evenodd" clip-rule="evenodd" d="M22.2857 6.04762H9.71429C7.68924 6.04762 6.04762 7.68924 6.04762 9.71429V22.2857C6.04762 24.3108 7.68924 25.9524 9.71429 25.9524H22.2857C24.3108 25.9524 25.9524 24.3108 25.9524 22.2857V9.71429C25.9524 7.68924 24.3108 6.04762 22.2857 6.04762ZM9.71429 5C7.11066 5 5 7.11066 5 9.71429V22.2857C5 24.8893 7.11066 27 9.71429 27H22.2857C24.8893 27 27 24.8893 27 22.2857V9.71429C27 7.11066 24.8893 5 22.2857 5H9.71429Z"/>
<path fill-rule="evenodd" clip-rule="evenodd" d="M4.99362 2.13946C13.3331 0.599491 17.8365 0.762853 26.7979 2.21673C28.217 2.44695 29.3534 3.51092 29.6582 4.90232C31.4637 13.1464 31.3433 18.7461 29.589 27.0482C29.3037 28.398 28.2601 29.4495 26.9303 29.7251C19.1046 31.3476 13.5637 31.3659 5.0201 29.7056C3.63578 29.4366 2.55134 28.3408 2.28202 26.939C0.695617 18.682 0.573046 13.0806 2.24234 4.8478C2.52244 3.46641 3.61246 2.39451 4.99362 2.13946ZM1.22307 4.63591C1.58967 2.82785 3.01362 1.43412 4.80693 1.10296C13.2883 -0.463204 17.9137 -0.291648 26.9626 1.1764C28.7883 1.4726 30.2737 2.84639 30.674 4.67422C32.515 13.0805 32.3889 18.834 30.6065 27.2686C30.2354 29.0247 28.8765 30.3971 27.139 30.7573C23.4424 31.5237 20.2384 31.9379 17 31.9935C17 31.9957 17 31.9978 17 32C17 32.5523 16.5523 33 16 33C15.4477 33 15 32.5523 15 32C15 31.9942 15.0001 31.9883 15.0002 31.9825C11.8877 31.8954 8.64653 31.4832 4.82397 30.7403C3.02189 30.3901 1.61104 28.964 1.26064 27.1402C-0.348909 18.7628 -0.476922 13.0201 1.22307 4.63591Z"/>
</svg>
